<?xml version="1.0" encoding="utf-8"?>
<!DOCTYPE svg PUBLIC "-//W3C//DTD SVG 1.1//EN" "http://www.w3.org/Graphics/SVG/1.1/DTD/svg11.dtd">
<svg version="1.1" id="图形" xmlns="http://www.w3.org/2000/svg" xmlns:xlink="http://www.w3.org/1999/xlink" x="0px" y="0px" width="1000px" height="1024px" viewBox="0 0 1000 1024" enable-background="new 0 0 1000 1024" xml:space="preserve">
  <path fill="#4213F5" d="M515.1909 698.0714c51.5691 0 101.5391-10.0929 148.6108-29.979 45.4727-19.1866 86.2483-46.7673 121.3272-81.8427 35.079-35.0754 62.5625-75.9468 81.8509-121.3151 19.8881-47.0671 29.982-97.0321 29.982-148.596 0-51.5639-10.0939-101.5289-29.982-148.596-19.1885-45.4682-46.7719-86.2396-81.8509-121.3151-35.079-35.0754-75.9544-62.5562-121.3272-81.8427-47.0718-19.8861-97.0418-29.979-148.6108-29.979-51.5691 0-101.5391 10.0929-148.6108 29.979-45.4727 19.1866-86.2483 46.7673-121.3272 81.8427-35.079 35.0754-62.5625 75.9468-81.8509 121.3151-19.8881 47.0671-29.982 97.0321-29.982 148.596 0 51.5639 10.0939 101.5289 29.982 148.596 19.1885 45.4682 46.7719 86.2396 81.8509 121.3151 35.079 35.0754 75.9544 62.5562 121.3272 81.8427C413.6518 687.9784 463.6218 698.0714 515.1909 698.0714M515.1909 742.0406c-235.1589 0-425.7446-190.5666-425.7446-425.702s190.5856-425.702 425.7446-425.702 425.7446 190.5666 425.7446 425.702S750.3498 742.0406 515.1909 742.0406L515.1909 742.0406zM431.2413 75.0075v23.88328170280803h5.09694183489906c17.5894 0 29.5823 2.4983 35.7785 7.3948 6.2962 4.8966 9.3944 14.29 9.3944 28.0803V347.61666833216754c0 12.4913-2.6984 21.1852-8.0951 25.8819s-15.0909 7.095-29.0826 7.095c-0.9994 0-2.8983-0.0999-5.7965-0.3997-2.8983-0.1999-5.0969-0.3997-6.4961-0.3997v21.38503047866493c19.4883 2.1985 37.5775 5.3962 54.2674 9.5933 16.69 4.1971 32.0808 9.4934 46.2722 15.689h16.989806116330204v-290.696512441291c0-14.9895 2.6984-24.8826 8.0951-29.6792 5.3968-4.7966 16.0903-7.195 31.9808-7.195h9.394363381970818v-23.88328170280803H431.2412552468519zM514.0915 487.3189c-13.7917 0-24.4853 4.1971-32.1807 12.4913-7.6954 8.2942-11.593 19.6862-11.593 34.1761 0 14.6897 3.8977 26.1817 11.593 34.3759 7.6954 8.1943 18.4889 12.2914 32.1807 12.2914 13.292 0 23.5858-3.9972 31.0814-12.0915 7.4955-8.0943 11.1933-19.5863 11.1933-34.5758 0-14.6897-3.6978-26.1817-11.1933-34.3759C537.6774 491.416 527.3836 487.3189 514.0915 487.3189zM484.2095 79.0047" transform="translate(0, 812) scale(1, -1)"/>
</svg>
