<?xml version="1.0" encoding="utf-8"?>
<!DOCTYPE svg PUBLIC "-//W3C//DTD SVG 1.1//EN" "http://www.w3.org/Graphics/SVG/1.1/DTD/svg11.dtd">
<svg version="1.1" id="图形" xmlns="http://www.w3.org/2000/svg" xmlns:xlink="http://www.w3.org/1999/xlink" x="0px" y="0px" width="1024px" height="1024px" viewBox="0 0 1024 1024" enable-background="new 0 0 1024 1024" xml:space="preserve">
  <path fill="#4213F5" d="M512.714496 273.219168c-150.57998 0-273.090483 120.851853-273.090483 269.390416S362.134516 812 512.714496 812C663.294475 812 785.804979 691.148147 785.804979 542.609584S663.294475 273.219168 512.714496 273.219168zM512.714496 773.876548c-129.55339 0-234.941514-103.729472-234.941514-231.266964s105.413641-231.266964 234.941514-231.266964c129.55339 0 234.967031 103.729472 234.967031 231.266964S642.267886 773.876548 512.714496 773.876548zM606.976899-212l-188.49929 0c-189.443445 0-339.079269 0-339.079269 111.818585l0 18.551372c0 184.314386 152.111042 334.256423 339.079269 334.256423l188.49929 0c186.968227 0 339.079269-149.942037 339.079269-334.256423l0-18.551372C946.030651-212 788.892621-212 606.976899-212zM418.47761 214.47741c-165.941638 0-300.955817-132.845174-300.955817-296.132971l0-18.551372c0-70.122654 114.344838-73.669615 300.955817-73.669615l188.49929 0c154.764883 0 300.9303 0 300.955817 73.669615l0 18.551372c0 163.287797-135.014179 296.132971-300.955817 296.132971L418.47761 214.47741z" transform="translate(0, 812) scale(1, -1)"/>
</svg>
