<?xml version="1.0" encoding="utf-8"?>
<!DOCTYPE svg PUBLIC "-//W3C//DTD SVG 1.1//EN" "http://www.w3.org/Graphics/SVG/1.1/DTD/svg11.dtd">
<svg version="1.1" id="图形" xmlns="http://www.w3.org/2000/svg" xmlns:xlink="http://www.w3.org/1999/xlink" x="0px" y="0px" width="1025px" height="1024px" viewBox="0 0 1025 1024" enable-background="new 0 0 1025 1024" xml:space="preserve">
  <path fill="#4213F5" d="M641.12 588.192 512.448 412.16 383.328 588 303.136 588 306.72 580.832 448.8 364.64 319.136 364.64 319.424 299.52 479.392 299.52 479.392 204.16 319.2 204.16 319.2 139.936 479.2 139.936 479.2 12 543.552 12 543.552 139.936 703.936 139.936 703.936 203.392 543.552 203.392 543.552 300.352 703.936 300.352 703.936 365.056 574.912 365.056 721.856 588.192ZM1002.432 611.168c-21.888 126.048-52.128 156.096-179.904 178.432-81.344 14.24-196.192 22.368-314.976 22.368-117.76 0-226.688-7.68-306.688-21.568C74.816 768.48 44.8 738.24 22.496 610.496c-29.6-169.152-30.048-453.824-0.992-621.568 21.856-126.048 52.096-156.032 179.904-178.432 81.536-14.24 196.576-22.432 315.68-22.432 117.472 0 226.176 7.616 306.08 21.472 126.08 21.888 156.096 52.16 178.4 179.936C1031.136 158.656 1031.552 443.328 1002.432 611.168zM970.496-5.184c-20.032-114.528-40-134.752-152.8-154.336-78.144-13.536-184.928-20.96-300.64-20.96-117.344 0-230.4 8-310.24 21.952-114.592 20.096-134.784 40.096-154.304 152.8-28.544 164.864-28.128 444.576 0.96 610.816 20.032 114.496 40 134.688 152.768 154.272 78.272 13.6 185.248 21.088 301.28 21.088 117.024 0 229.888-8 309.536-21.92 114.496-20.064 134.688-40.032 154.304-152.8C1000 440.864 999.584 161.088 970.496-5.184z" transform="translate(0, 812) scale(1, -1)"/>
</svg>
