<?xml version="1.0" encoding="utf-8"?>
<!DOCTYPE svg PUBLIC "-//W3C//DTD SVG 1.1//EN" "http://www.w3.org/Graphics/SVG/1.1/DTD/svg11.dtd">
<svg version="1.1" id="图形" xmlns="http://www.w3.org/2000/svg" xmlns:xlink="http://www.w3.org/1999/xlink" x="0px" y="0px" width="1024px" height="1024px" viewBox="0 0 1024 1024" enable-background="new 0 0 1024 1024" xml:space="preserve">
  <path fill="#272636" d="M512 812c-281.823163 0-510.087173-228.26401-510.087173-510.087173 0-140.273973 56.747198-267.795766 148.562889-360.249066 0 0 0 0.637609 0.637609 0.637609 96.916563-93.728518 225.075965-146.012453 360.886675-146.012453 135.81071 0 263.970112 51.646326 360.886675 146.012453 0 0 0-0.637609 0.637609-0.637609C965.339975 34.117061 1022.087173 161.001245 1022.087173 301.912827 1022.087173 583.098381 793.823163 812 512 812zM868.423412-56.423412C772.144458-148.876712 645.897883-199.247821 512-199.247821c-133.897883 0-260.144458 51.008717-356.423412 142.824408L152.388543-56.423412c76.513076 97.554172 191.920299 162.590286 322.630137 173.429639-124.333748 17.853051-219.975093 124.971357-219.975093 254.405978 0 142.1868 114.769614 256.956413 256.956413 256.956413s256.956413-114.769614 256.956413-256.956413c0-129.43462-95.641345-235.915318-219.975093-254.405978 130.709838-10.839352 246.117061-75.875467 322.630137-173.429639L868.423412-56.423412z" transform="translate(0, 812) scale(1, -1)"/>
</svg>
