<?xml version="1.0" encoding="utf-8"?>
<!DOCTYPE svg PUBLIC "-//W3C//DTD SVG 1.1//EN" "http://www.w3.org/Graphics/SVG/1.1/DTD/svg11.dtd">
<svg version="1.1" id="图形" xmlns="http://www.w3.org/2000/svg" xmlns:xlink="http://www.w3.org/1999/xlink" x="0px" y="0px" width="1024px" height="1024px" viewBox="0 0 1024 1024" enable-background="new 0 0 1024 1024" xml:space="preserve">
  <path fill="#4213F5" d="M688.141696 595.828612l-111.1331-111.161752-153.423275 34.478256c14.477736 20.2236 36.653805 67.393923 18.578124 85.442998-20.754696 20.697391-79.222319-11.102872-92.276636-24.184819l-36.542264-36.542264-107.674325 24.184819-80.895425-80.895425 89.347934-42.456974-3.291976-3.291976 68.091818-68.091818 27.533077 27.504424 126.670981-60.19701L316.022537 189.928069l-158.610414 1.617847-45.524846-45.552475 144.133701-37.965683 73.252351-73.252351 37.909401-144.078443 45.524846 45.552475-1.590218 168.625512 150.71663 106.893542 60.19701-126.670981-27.504424-27.533077 68.147076-68.035536 3.235694 3.235694 42.484603-89.347934 80.924077 80.924077-24.213471 107.59246 36.542264 36.514635c13.05534 13.08297 44.855604 71.634504 24.157189 92.332918-17.517979 18.131963-65.302285-4.045129-85.470627-18.522865l-34.478256 153.617703 111.189382 111.161752c37.880749 37.909401 144.3005 194.678888 104.858186 233.760998C882.821607 739.878402 726.078727 633.738014 688.141696 595.828612z" transform="translate(0, 812) scale(1, -1)"/>
</svg>
