<?xml version="1.0" encoding="utf-8"?>
<!DOCTYPE svg PUBLIC "-//W3C//DTD SVG 1.1//EN" "http://www.w3.org/Graphics/SVG/1.1/DTD/svg11.dtd">
<svg version="1.1" id="图形" xmlns="http://www.w3.org/2000/svg" xmlns:xlink="http://www.w3.org/1999/xlink" x="0px" y="0px" width="1024px" height="1024px" viewBox="0 0 1024 1024" enable-background="new 0 0 1024 1024" xml:space="preserve">
  <path fill="#4213F5" d="M176.497295-94.944004c-21.278629 0-38.229696 6.269797-50.383504 18.637476-20.24202 20.59813-19.956517 50.439786-19.934005 51.699476l0 654.93848c-0.023536 1.232061-0.367367 31.036877 19.834744 51.637054 12.154831 12.394285 29.140691 18.678408 50.482765 18.678408l586.016761 0c0.760317 0 18.301831-0.101307 35.625382-8.898671 15.82543-8.037047 34.688034-25.215288 34.688034-61.416791l0-67.570955 33.099862 0c2.927679 0 70.314439-0.799202 70.314439-70.314439l0-517.075599c0.004093-1.267876-0.14224-31.382754-20.672832-51.976792-12.132318-12.168134-28.833699-18.337647-49.641607-18.337647L176.497295-94.944004zM193.733864 663.432313c-15.238053 0-27.346835-4.447289-35.989679-13.218046-14.501272-14.71412-14.3488-36.874839-14.34573-37.096896l0-620.512413c0-0.119727 0.137123-12.827143 6.435573-25.321712 8.368598-16.597003 23.137976-25.013697 43.899836-25.013697l654.958946 0c14.898315 0 26.825972 4.380774 35.455513 13.020548 14.732539 14.748912 14.879895 37.09178 14.879895 37.315884L899.028219 475.210487c0 20.274766-8.448416 34.898835-25.108864 43.468001-12.505825 6.432503-25.13854 6.864338-25.264407 6.868431l-15.82543-0.001023L832.829518 44.31262c0.004093-0.916882-0.025583-22.669302-9.141194-31.81766-2.663666-2.669806-5.847172-4.025687-9.466606-4.025687s-6.803963 1.354857-9.466606 4.025687c-9.114588 9.147334-9.145287 30.900777-9.141194 31.822776L795.613918 613.096904c0 20.8734-8.444323 35.680641-25.094538 44.00933-12.493545 6.248308-25.115004 6.326079-25.241894 6.326079L193.733864 663.432313zM245.253238 77.36234l-0.288572 0.144286c-0.73985 0.36839-18.131963 9.138124-18.131963 18.517749 0 9.425673 17.392112 18.178011 18.132986 18.547425l0.288572 0.14224 431.327656 0 0.282433-0.137123c0.737804-0.357134 18.077727-8.858762 18.077727-18.552541 0-8.922207-16.197914-17.552771-18.046005-18.507516l-0.295735-0.153496L245.253238 77.363364zM245.237889 180.759245l-0.299829 0.157589c-1.853208 0.973164-18.104333 9.775644-18.104333 18.519796 0 9.837042 17.414625 18.193361 18.156522 18.545378l0.278339 0.12996 431.319469 0 0.286526-0.14224c0.737804-0.363274 18.067494-9.033747 18.067494-18.533099 0-9.287527-17.318434-18.157545-18.056238-18.531052l-0.291642-0.146333L245.237889 180.759245zM245.110999 284.245178l-0.293689 0.149403c-0.74292 0.379647-18.192338 9.402137-18.192338 18.955724 0 9.242502 17.48421 17.624403 18.229177 17.97642l0.278339 0.132006 431.489338 0 0.26606-0.115634c1.862417-0.820692 18.20871-8.270361 18.20871-17.076934 0-9.783831-17.362436-19.444864-18.10024-19.85214l-0.309038-0.168846L245.110999 284.245178zM244.873592 473.838234l-18.039865 18.039865 0 18.370393 18.039865 18.039865 173.493379 0 18.038842-18.039865 0-18.370393-18.038842-18.039865L244.873592 473.838234z" transform="translate(0, 812) scale(1, -1)"/>
</svg>
