<?xml version="1.0" encoding="utf-8"?>
<!DOCTYPE svg PUBLIC "-//W3C//DTD SVG 1.1//EN" "http://www.w3.org/Graphics/SVG/1.1/DTD/svg11.dtd">
<svg version="1.1" id="图形" xmlns="http://www.w3.org/2000/svg" xmlns:xlink="http://www.w3.org/1999/xlink" x="0px" y="0px" width="1024px" height="1024px" viewBox="0 0 1024 1024" enable-background="new 0 0 1024 1024" xml:space="preserve">
  <path fill="#4213F5" d="M786.848 300c83.744 86.08 121.216 169.824 89.792 221.504-12.512 20.608-41.344 45.152-107.616 45.152-36.352 0-78.816-7.36-124.64-20.928-30.432 109.984-81.152 180.768-139.712 180.768-57.824 0-108.032-69.088-138.592-176.8-40.512 11.04-78.112 16.96-110.752 16.96-66.272 0-95.104-24.544-107.648-45.152-25.184-41.408-8.288-103.232 47.52-174.08 12.448-15.808 26.656-31.68 42.144-47.552-83.68-86.016-121.056-169.728-89.664-221.408 12.512-20.576 41.376-45.152 107.616-45.152 32.64 0 70.272 5.952 110.784 16.96 30.528-107.712 80.736-176.768 138.56-176.768 58.528 0 109.248 70.784 139.712 180.736 45.824-13.568 88.32-20.928 124.672-20.928 66.272 0 95.104 24.544 107.616 45.152 31.392 51.68-6.08 135.488-89.792 221.536zM769.024 532.544c27.808 0 64.032-4.992 78.464-28.768 20.8-34.24-10.528-103.52-84.96-179.904-27.168 25.408-58.112 50.784-92.384 75.328-3.712 40.416-9.6 78.432-17.44 113.248 43.296 12.96 83.136 20.096 116.352 20.096zM582.72 183.936c-23.36-14.208-46.976-27.264-70.528-39.2-23.52 11.936-47.136 24.992-70.496 39.2-24.576 14.944-48.096 30.624-70.432 46.72-1.44 22.368-2.4 45.376-2.4 69.344 0 24 0.928 47.04 2.4 69.408 21.856 15.808 45.312 31.424 70.368 46.656 23.36 14.208 47.008 27.264 70.56 39.232 23.552-11.936 47.168-25.024 70.56-39.232 19.264-11.712 37.344-23.712 54.72-35.776 1.952-25.664 3.04-52.416 3.04-80.288s-1.088-54.624-3.04-80.256c-17.376-12.096-35.456-24.096-54.752-35.808zM633.12 175.456c-3.36-27.552-7.84-53.28-13.12-77.312-22.592 7.968-45.824 17.376-69.408 28.064 16.608 8.96 33.248 18.464 49.824 28.544 11.168 6.784 22.048 13.696 32.672 20.704zM473.76 126.24c-28.448-12.928-56.448-23.904-83.328-32.8-6.464 28.448-11.712 59.52-15.424 93.024 15.872-10.816 32.096-21.472 48.928-31.712 16.576-10.08 33.216-19.584 49.824-28.512zM335.552 257.792c-17.472 13.856-34.048 27.968-49.344 42.176 15.04 14.016 31.616 28.16 49.344 42.272-0.512-13.888-0.8-27.968-0.8-42.24s0.288-28.352 0.8-42.208zM375.072 413.728c3.68 33.408 8.928 64.416 15.36 92.8 26.88-8.896 54.848-19.872 83.296-32.8-16.608-8.96-33.28-18.464-49.856-28.544-16.864-10.272-33.152-20.8-48.832-31.488zM550.624 473.76c23.584 10.688 46.816 20.096 69.376 28.064 5.28-24 9.76-49.728 13.12-77.28-10.656 7.008-21.504 13.888-32.64 20.672-16.576 10.08-33.248 19.584-49.856 28.544zM673.248 354.272c23.712-18.08 45.536-36.288 64.832-54.272-19.296-17.984-41.12-36.16-64.832-54.272 0.864 17.728 1.376 35.84 1.376 54.272s-0.512 36.512-1.376 54.272zM504.672 692.384c38.88 0 80.32-59.264 107.104-157.12-32.192-11.2-65.664-25.248-99.584-41.792-38.784 18.912-76.928 34.528-113.28 46.4 26.784 95.072 67.52 152.512 105.792 152.512zM176.864 503.776c14.432 23.776 50.656 28.768 78.496 28.768 29.568 0 64.416-5.664 102.24-16.032-9.056-39.296-15.712-82.656-19.424-129.056-27.968-20.896-53.568-42.24-76.448-63.68-14.624 14.976-28 29.92-39.712 44.768-45.696 57.984-62.144 107.264-45.152 135.232zM255.328 67.456c-27.84 0-64.032 4.992-78.464 28.768-20.8 34.24 10.496 103.52 84.928 179.904 23.136-21.536 48.8-42.752 76.384-63.328 3.712-46.496 10.368-89.92 19.424-129.28-37.824-10.368-72.672-16.032-102.24-16.032zM504.672-92.384c-38.24 0-78.976 57.44-105.792 152.48 36.352 11.872 74.528 27.488 113.28 46.432 33.92-16.544 67.392-30.592 99.584-41.824-26.752-97.824-68.224-157.088-107.104-157.088zM847.488 96.192c-14.432-23.744-50.624-28.768-78.464-28.768-33.216 0-73.056 7.136-116.352 20.096 7.84 34.848 13.76 72.864 17.472 113.28 34.24 24.576 65.216 49.92 92.384 75.328 74.464-76.416 105.76-145.696 84.96-179.968z" transform="translate(0, 812) scale(1, -1)"/>
</svg>
