<?xml version="1.0" encoding="utf-8"?>
<!DOCTYPE svg PUBLIC "-//W3C//DTD SVG 1.1//EN" "http://www.w3.org/Graphics/SVG/1.1/DTD/svg11.dtd">
<svg version="1.1" id="图形" xmlns="http://www.w3.org/2000/svg" xmlns:xlink="http://www.w3.org/1999/xlink" x="0px" y="0px" width="1024px" height="1024px" viewBox="0 0 1024 1024" enable-background="new 0 0 1024 1024" xml:space="preserve">
  <path fill="#4213F5" d="M791.273 800h-558.545c-128.535 0-232.727-104.215-232.727-232.727v-558.545c0-128.512 104.192-232.727 232.727-232.727h558.545c128.535 0 232.727 104.215 232.727 232.727l-0 558.545c0 128.512-104.192 232.727-232.727 232.727zM1000.727 32c0-128.512-104.192-232.727-232.727-232.727h-512c-128.512 0-232.727 104.215-232.727 232.727v512c0 128.512 104.215 232.727 232.727 232.727h512c128.535 0 232.727-104.215 232.727-232.727v-512zM849.455 544h-535.273c-6.423 0-11.636-5.213-11.636-11.636v-23.273c0-6.423 5.213-11.636 11.636-11.636h535.273c6.423 0 11.636 5.213 11.636 11.636v23.273c0 6.423-5.213 11.636-11.636 11.636zM849.455 311.273h-535.273c-6.423 0-11.636-5.213-11.636-11.636v-23.273c0-6.423 5.213-11.636 11.636-11.636h535.273c6.423 0 11.636 5.213 11.636 11.636v23.273c0 6.423-5.213 11.636-11.636 11.636zM593.455 78.545h-279.273c-6.423 0-11.636-5.213-11.636-11.636v-23.273c0-6.423 5.213-11.636 11.636-11.636h279.273c6.423 0 11.636 5.213 11.636 11.636v23.273c0 6.423-5.213 11.636-11.636 11.636zM244.364 544h-69.818c-6.423 0-11.636-5.213-11.636-11.636v-23.273c0-6.423 5.213-11.636 11.636-11.636h69.818c6.423 0 11.636 5.213 11.636 11.636v23.273c-0 6.423-5.213 11.636-11.636 11.636zM244.364 311.273h-69.818c-6.423 0-11.636-5.213-11.636-11.636v-23.273c0-6.423 5.213-11.636 11.636-11.636h69.818c6.423 0 11.636 5.213 11.636 11.636v23.273c-0 6.423-5.213 11.636-11.636 11.636zM244.364 78.545h-69.818c-6.423 0-11.636-5.213-11.636-11.636v-23.273c0-6.423 5.213-11.636 11.636-11.636h69.818c6.423 0 11.636 5.213 11.636 11.636v23.273c-0 6.423-5.213 11.636-11.636 11.636z" transform="translate(0, 812) scale(1, -1)"/>
</svg>
