<?xml version="1.0" encoding="utf-8"?>
<!DOCTYPE svg PUBLIC "-//W3C//DTD SVG 1.1//EN" "http://www.w3.org/Graphics/SVG/1.1/DTD/svg11.dtd">
<svg version="1.1" id="图形" xmlns="http://www.w3.org/2000/svg" xmlns:xlink="http://www.w3.org/1999/xlink" x="0px" y="0px" width="1024px" height="1024px" viewBox="0 0 1024 1024" enable-background="new 0 0 1024 1024" xml:space="preserve">
  <path fill="#4213F5" d="M576.881706 466.532851 447.184809 466.532851c-21.906939 0-40.4779-16.114003-43.565215-37.801954l-43.220361-311.586504c-1.832741-12.872169 2.121314-25.89681 10.800997-35.57831l107.464547-119.863948c17.685801-19.727297 48.666396-19.466354 66.018599 0.554632l108.605533 125.314077c8.369621 9.657964 12.128225 22.476921 10.296507 35.123962l-43.152822 306.136376C617.300254 450.474107 598.74976 466.532851 576.881706 466.532851zM599.974657 508.876238 424.02432 508.876238c-17.295921 0-31.318286 14.021342-31.318286 31.318286l0 81.416288c0 17.295921 14.021342 31.318286 31.318286 31.318286l175.950338 0c17.295921 0 31.318286-14.021342 31.318286-31.318286l0-81.416288C631.292943 522.897579 617.271602 508.876238 599.974657 508.876238z" transform="translate(0, 812) scale(1, -1)"/>
</svg>
