<?xml version="1.0" encoding="utf-8"?>
<!DOCTYPE svg PUBLIC "-//W3C//DTD SVG 1.1//EN" "http://www.w3.org/Graphics/SVG/1.1/DTD/svg11.dtd">
<svg version="1.1" id="图形" xmlns="http://www.w3.org/2000/svg" xmlns:xlink="http://www.w3.org/1999/xlink" x="0px" y="0px" width="1024px" height="1024px" viewBox="0 0 1024 1024" enable-background="new 0 0 1024 1024" xml:space="preserve">
  <path fill="#4213F5" d="M513.3466-61.047c-192.898-3.8195-363.4033 154.9691-363.8886 360.2207-0.4536 199.1977 163.029 363.2005 362.7141 362.3465 194.7095-0.8212 360.1521-156.4262 360.7562-361.1392C873.514 92.766 702.5889-62.5206 513.3466-61.047zM642.5201 330.2295c-4.4585-1.792-6.7062-2.5989-8.8668-3.6035-44.501-20.4984-90.6588-25.09-138.5759-15.2197-51.5215 10.6271-97.2114 34.8631-142.3647 60.4068-28.9628 16.3922-57.2211 34.2753-87.1547 48.6738-29.399 14.1783-56.0312 0.1321-63.5566-31.4276-4.8097-20.2455-9.4863-40.7941-11.3961-61.4605-6.2863-69.0872 8.4808-133.8317 45.0519-192.9144 4.9285-7.9452 15.1849-16.1085 23.9852-17.4807 23.381-3.6219 47.9857-7.7445 70.913-4.1073 44.4826 6.955 88.8975 16.7772 132.0397 29.6653 72.5053 21.6556 138.626 57.7239 202.1827 98.3532 3.285 2.1125 6.9396 8.6467 5.9331 11.5968C662.0119 278.4561 652.2563 303.8984 642.5201 330.2295zM633.9389 346.6545c-29.7001 66.858-66.4392 127.9683-113.9886 182.4225-23.7158 27.1862-49.0742 52.478-81.9599 68.6858-12.202 6.0508-24.4367 9.855-38.6161 4.2742-50.986-20.097-94.9985-50.0972-131.1007-91.2783-18.4033-21.0186-35.0628-43.4432-44.0463-66.1381 17.7664-3.3505 35.884-4.0212 51.6905-10.3916 21.0514-8.4797 40.6272-20.8333 60.2368-32.514 54.4051-32.4168 108.8778-64.7301 172.8512-74.5513C551.6769 320.5926 593.3445 323.5418 633.9389 346.6545zM678.8229 228.8791c-5.5982-3.0669-8.7491-4.5445-11.6306-6.4041-53.2654-34.559-109.6817-62.8173-168.9129-85.5777-48.8909-18.8047-98.603-35.03-150.997-39.5213-27.6879-2.3818-55.7455-0.386-84.0878-0.386 0.7537-2.0613 1.022-3.6209 1.8268-4.778 1.408-1.9773 3.1508-3.8369 4.8271-5.6648 67.3434-72.7071 150.2085-109.1103 249.6645-107.9869 12.3525 0.1833 21.5378 3.669 28.2081 13.0908 10.8954 15.4184 21.1528 31.3416 31.4604 47.1634 30.4538 46.8449 61.6612 93.0877 105.9932 128.5356 2.8672 2.3296 6.0508 7.3247 5.4467 10.3762C687.4716 194.185 683.2148 210.4737 678.8229 228.8791zM449.0189 616.5501c97.2278-65.8022 150.2085-162.2426 201.0604-260.862 39.8582 27.7217 55.8643 64.6461 52.4769 110.4691-2.9491 39.6718-17.9999 75.3725-37.6443 109.2618-3.2184 5.5982-8.6487 10.9793-14.3647 13.9459-44.1784 23.0953-91.9654 32.1802-141.2229 32.7342C489.2109 622.3491 469.1149 618.5285 449.0189 616.5501zM688.042 257.3023c19.3075 15.6385 37.4098 28.93 53.8337 43.9828 24.4378 22.3734 54.7246 46.8285 67.5963 78.3032 15.6211 38.2147-21.8388 84.2557-42.1192 113.9722-19.3413 28.3423-44.7508 51.2696-75.9603 72.5729 36.3039-85.161 50.7361-164.3366-34.391-227.0054C667.1913 312.244 677.2132 285.8309 688.042 257.3023zM823.8356 369.2654c-32.7158-51.2881-77.2157-90.0731-125.2526-125.4513-2.5293-1.8606-3.8369-7.8961-3.0659-11.3981 3.838-17.3834 8.5484-34.561 11.65-46.7139 0.6359-2.4801 70.4758-15.5372 80.767-44.9843 26.2144 17.5657 37.0749 79.8484 40.8115 109.2106C839.4742 333.7828 826.9865 367.0188 823.8356 369.2654zM698.1315 148.8965c-1.9794 0.5028-93.8772-104.5688-132.1738-163.7847 3.2522-0.2683 5.1282-0.8028 6.8383-0.4516 35.0464 6.3519 67.6116 19.5932 99.0208 36.0858 14.9166 7.8275 26.1468 18.1023 26.2482 36.3203C698.2308 87.6541 698.1315 118.2584 698.1315 148.8965zM714.4059 55.4575c1.6927-0.7537 3.369-1.5247 5.0452-2.2979 12.7887 13.5772 25.7935 26.9353 38.315 40.7962 19.7775 21.889 19.8769 30.974 1.2401 53.9361-2.1801 2.7146-4.3909 5.4968-7.039 7.7271-11.9839 10.1376-25.0419 13.2557-37.5777 7.1066C714.4059 125.7848 714.4059 90.6207 714.4059 55.4575z" transform="translate(0, 812) scale(1, -1)"/>
</svg>
